<?xml version="1.0" encoding="UTF-8"?>
<svg id="Layer_1" data-name="Layer 1" xmlns="http://www.w3.org/2000/svg" viewBox="0 0 806.61 662">
  <defs>
    <style>
      .cls-1 {
        fill: #FFF;
      }
    </style>
  </defs>
  <path class="cls-1" d="m378.04,79l38.68,67-38.68,67h-77.36l-38.68-67,38.68-67h77.36m2.31-4h-81.98l-40.99,71,40.99,71h81.98l40.99-71-40.99-71h0Z"/>
  <path class="cls-1" d="m378.04,228l38.68,67-38.68,67h-77.36l-38.68-67,38.68-67h77.36m2.31-4h-81.98l-40.99,71,40.99,71h81.98l40.99-71-40.99-71h0Z"/>
  <path class="cls-1" d="m506.04,4l38.68,67-38.68,67h-77.36l-38.68-67L428.67,4h77.36m2.31-4h-81.98l-40.99,71,40.99,71h81.98l40.99-71L508.34,0h0Z"/>
  <polygon class="cls-1" points="508.34 149 426.36 149 385.37 220 426.36 291 508.34 291 549.34 220 508.34 149"/>
  <polygon class="cls-1" points="637.34 75 555.36 75 514.37 146 555.36 217 637.34 217 678.34 146 637.34 75"/>
  <polygon class="cls-1" points="637.34 224 555.36 224 514.37 295 555.36 366 637.34 366 678.34 295 637.34 224"/>
  <polygon class="cls-1" points="765.34 0 683.36 0 642.37 71 683.36 142 765.34 142 806.34 71 765.34 0"/>
  <polygon class="cls-1" points="765.34 149 683.36 149 642.37 220 683.36 291 765.34 291 806.34 220 765.34 149"/>
  <polygon class="cls-1" points="380.34 371 298.36 371 257.37 442 298.36 513 380.34 513 421.34 442 380.34 371"/>
  <polygon class="cls-1" points="380.34 520 298.36 520 257.37 591 298.36 662 380.34 662 421.34 591 380.34 520"/>
  <polygon class="cls-1" points="508.34 296 426.36 296 385.37 367 426.36 438 508.34 438 549.34 367 508.34 296"/>
  <polygon class="cls-1" points="508.34 445 426.36 445 385.37 516 426.36 587 508.34 587 549.34 516 508.34 445"/>
  <polygon class="cls-1" points="637.62 371 555.64 371 514.65 442 555.64 513 637.62 513 678.61 442 637.62 371"/>
  <polygon class="cls-1" points="637.62 520 555.64 520 514.65 591 555.64 662 637.62 662 678.61 591 637.62 520"/>
  <polygon class="cls-1" points="765.62 296 683.64 296 642.65 367 683.64 438 765.62 438 806.61 367 765.62 296"/>
  <polygon class="cls-1" points="765.62 445 683.64 445 642.65 516 683.64 587 765.62 587 806.61 516 765.62 445"/>
  <path class="cls-1" d="m120.67,375l38.68,67-38.68,67H43.3L4.62,442l38.68-67h77.36m2.31-4H40.99L0,442l40.99,71h81.98l40.99-71-40.99-71h0Z"/>
  <polygon class="cls-1" points="122.98 520 40.99 520 0 591 40.99 662 122.98 662 163.97 591 122.98 520"/>
  <path class="cls-1" d="m248.67,300l38.68,67-38.68,67h-77.36l-38.68-67,38.68-67h77.36m2.31-4h-81.98l-40.99,71,40.99,71h81.98l40.99-71-40.99-71h0Z"/>
  <polygon class="cls-1" points="250.98 445 168.99 445 128 516 168.99 587 250.98 587 291.97 516 250.98 445"/>
</svg>